<svg id="visual" viewBox="0 0 900 900" width="900" height="900" xmlns="http://www.w3.org/2000/svg" xmlns:xlink="http://www.w3.org/1999/xlink" version="1.1"><g stroke-width="1" stroke-linejoin="bevel"><path d="M406 474L400 390L333 492Z" fill="#12110c" stroke="#12110c"></path><path d="M400 390L267 426L333 492Z" fill="#191815" stroke="#191815"></path><path d="M467 360L396 330L400 390Z" fill="#000000" stroke="#000000"></path><path d="M400 390L273 305L267 426Z" fill="#262522" stroke="#262522"></path><path d="M273 305L230 401L267 426Z" fill="#23211e" stroke="#23211e"></path><path d="M267 426L216 462L333 492Z" fill="#0e0c07" stroke="#0e0c07"></path><path d="M406 474L467 360L400 390Z" fill="#191815" stroke="#191815"></path><path d="M230 401L216 462L267 426Z" fill="#080601" stroke="#080601"></path><path d="M396 330L273 305L400 390Z" fill="#161511" stroke="#161511"></path><path d="M437 601L497 516L406 474Z" fill="#12110c" stroke="#12110c"></path><path d="M406 474L497 516L467 360Z" fill="#0e0c07" stroke="#0e0c07"></path><path d="M273 305L210 333L230 401Z" fill="#191815" stroke="#191815"></path><path d="M117 419L130 472L216 462Z" fill="#12110c" stroke="#12110c"></path><path d="M335 630L437 601L333 492Z" fill="#23211e" stroke="#23211e"></path><path d="M333 492L437 601L406 474Z" fill="#1c1b18" stroke="#1c1b18"></path><path d="M437 601L473 590L497 516Z" fill="#2a2825" stroke="#2a2825"></path><path d="M224 607L335 630L333 492Z" fill="#1c1b18" stroke="#1c1b18"></path><path d="M467 360L507 282L396 330Z" fill="#12110c" stroke="#12110c"></path><path d="M396 330L308 191L273 305Z" fill="#262522" stroke="#262522"></path><path d="M563 320L507 282L467 360Z" fill="#201e1b" stroke="#201e1b"></path><path d="M216 462L224 607L333 492Z" fill="#191815" stroke="#191815"></path><path d="M507 282L438 230L396 330Z" fill="#12110c" stroke="#12110c"></path><path d="M273 305L185 213L210 333Z" fill="#262522" stroke="#262522"></path><path d="M117 419L216 462L230 401Z" fill="#191815" stroke="#191815"></path><path d="M216 462L120 586L224 607Z" fill="#201e1b" stroke="#201e1b"></path><path d="M628 370L467 360L497 516Z" fill="#1c1b18" stroke="#1c1b18"></path><path d="M628 370L563 320L467 360Z" fill="#191815" stroke="#191815"></path><path d="M507 282L517 210L438 230Z" fill="#161511" stroke="#161511"></path><path d="M210 333L117 419L230 401Z" fill="#12110c" stroke="#12110c"></path><path d="M438 230L308 191L396 330Z" fill="#161511" stroke="#161511"></path><path d="M210 333L107 312L117 419Z" fill="#0e0c07" stroke="#0e0c07"></path><path d="M563 320L517 210L507 282Z" fill="#2a2825" stroke="#2a2825"></path><path d="M438 230L437 126L308 191Z" fill="#1c1b18" stroke="#1c1b18"></path><path d="M634 517L628 370L497 516Z" fill="#12110c" stroke="#12110c"></path><path d="M563 320L610 192L517 210Z" fill="#161511" stroke="#161511"></path><path d="M185 213L107 312L210 333Z" fill="#0e0c07" stroke="#0e0c07"></path><path d="M308 191L185 213L273 305Z" fill="#0e0c07" stroke="#0e0c07"></path><path d="M0 511L120 586L130 472Z" fill="#201e1b" stroke="#201e1b"></path><path d="M130 472L120 586L216 462Z" fill="#191815" stroke="#191815"></path><path d="M404 728L437 601L335 630Z" fill="#2a2825" stroke="#2a2825"></path><path d="M0 511L130 472L117 419Z" fill="#23211e" stroke="#23211e"></path><path d="M608 580L634 517L497 516Z" fill="#12110c" stroke="#12110c"></path><path d="M473 590L608 580L497 516Z" fill="#262522" stroke="#262522"></path><path d="M462 710L608 580L473 590Z" fill="#1c1b18" stroke="#1c1b18"></path><path d="M462 710L473 590L437 601Z" fill="#161511" stroke="#161511"></path><path d="M404 728L335 630L268 734Z" fill="#191815" stroke="#191815"></path><path d="M404 728L462 710L437 601Z" fill="#1c1b18" stroke="#1c1b18"></path><path d="M268 734L335 630L224 607Z" fill="#262522" stroke="#262522"></path><path d="M120 586L162 667L224 607Z" fill="#1c1b18" stroke="#1c1b18"></path><path d="M162 667L268 734L224 607Z" fill="#000000" stroke="#000000"></path><path d="M474 121L437 126L438 230Z" fill="#0e0c07" stroke="#0e0c07"></path><path d="M308 191L161 75L185 213Z" fill="#191815" stroke="#191815"></path><path d="M610 192L474 121L517 210Z" fill="#2a2825" stroke="#2a2825"></path><path d="M517 210L474 121L438 230Z" fill="#2a2825" stroke="#2a2825"></path><path d="M669 201L610 192L563 320Z" fill="#12110c" stroke="#12110c"></path><path d="M0 277L0 413L107 312Z" fill="#161511" stroke="#161511"></path><path d="M107 312L0 413L117 419Z" fill="#080601" stroke="#080601"></path><path d="M120 586L69 725L162 667Z" fill="#262522" stroke="#262522"></path><path d="M682 620L704 529L608 580Z" fill="#1c1b18" stroke="#1c1b18"></path><path d="M608 580L704 529L634 517Z" fill="#262522" stroke="#262522"></path><path d="M634 517L728 393L628 370Z" fill="#262522" stroke="#262522"></path><path d="M628 370L724 312L563 320Z" fill="#23211e" stroke="#23211e"></path><path d="M392 0L334 74L437 126Z" fill="#12110c" stroke="#12110c"></path><path d="M437 126L334 74L308 191Z" fill="#000000" stroke="#000000"></path><path d="M161 75L97 179L185 213Z" fill="#262522" stroke="#262522"></path><path d="M185 213L97 179L107 312Z" fill="#1c1b18" stroke="#1c1b18"></path><path d="M0 413L0 511L117 419Z" fill="#161511" stroke="#161511"></path><path d="M704 529L728 393L634 517Z" fill="#080601" stroke="#080601"></path><path d="M635 739L682 620L608 580Z" fill="#000000" stroke="#000000"></path><path d="M268 734L311 814L404 728Z" fill="#262522" stroke="#262522"></path><path d="M404 728L486 810L462 710Z" fill="#1c1b18" stroke="#1c1b18"></path><path d="M462 710L635 739L608 580Z" fill="#12110c" stroke="#12110c"></path><path d="M195 783L311 814L268 734Z" fill="#12110c" stroke="#12110c"></path><path d="M195 783L268 734L162 667Z" fill="#191815" stroke="#191815"></path><path d="M126 790L195 783L162 667Z" fill="#12110c" stroke="#12110c"></path><path d="M728 393L724 312L628 370Z" fill="#0e0c07" stroke="#0e0c07"></path><path d="M503 0L392 0L474 121Z" fill="#000000" stroke="#000000"></path><path d="M724 312L669 201L563 320Z" fill="#000000" stroke="#000000"></path><path d="M311 814L366 825L404 728Z" fill="#000000" stroke="#000000"></path><path d="M0 226L0 277L107 312Z" fill="#2a2825" stroke="#2a2825"></path><path d="M366 825L486 810L404 728Z" fill="#191815" stroke="#191815"></path><path d="M0 511L0 613L120 586Z" fill="#201e1b" stroke="#201e1b"></path><path d="M0 613L69 725L120 586Z" fill="#23211e" stroke="#23211e"></path><path d="M334 74L161 75L308 191Z" fill="#12110c" stroke="#12110c"></path><path d="M97 179L0 226L107 312Z" fill="#1c1b18" stroke="#1c1b18"></path><path d="M607 769L635 739L462 710Z" fill="#201e1b" stroke="#201e1b"></path><path d="M0 103L0 226L97 179Z" fill="#12110c" stroke="#12110c"></path><path d="M486 810L607 769L462 710Z" fill="#000000" stroke="#000000"></path><path d="M161 75L95 108L97 179Z" fill="#0e0c07" stroke="#0e0c07"></path><path d="M69 725L126 790L162 667Z" fill="#2a2825" stroke="#2a2825"></path><path d="M338 900L366 825L311 814Z" fill="#191815" stroke="#191815"></path><path d="M338 900L364 900L366 825Z" fill="#191815" stroke="#191815"></path><path d="M808 664L711 683L797 788Z" fill="#1c1b18" stroke="#1c1b18"></path><path d="M635 739L711 683L682 620Z" fill="#2a2825" stroke="#2a2825"></path><path d="M838 630L819 510L704 529Z" fill="#080601" stroke="#080601"></path><path d="M810 436L792 334L728 393Z" fill="#000000" stroke="#000000"></path><path d="M474 121L392 0L437 126Z" fill="#080601" stroke="#080601"></path><path d="M334 74L223 0L161 75Z" fill="#161511" stroke="#161511"></path><path d="M609 73L474 121L610 192Z" fill="#12110c" stroke="#12110c"></path><path d="M392 0L308 0L334 74Z" fill="#080601" stroke="#080601"></path><path d="M93 0L0 103L95 108Z" fill="#000000" stroke="#000000"></path><path d="M678 126L610 192L669 201Z" fill="#191815" stroke="#191815"></path><path d="M678 126L609 73L610 192Z" fill="#1c1b18" stroke="#1c1b18"></path><path d="M839 174L678 126L669 201Z" fill="#080601" stroke="#080601"></path><path d="M728 393L792 334L724 312Z" fill="#000000" stroke="#000000"></path><path d="M724 312L839 174L669 201Z" fill="#23211e" stroke="#23211e"></path><path d="M810 436L728 393L704 529Z" fill="#0e0c07" stroke="#0e0c07"></path><path d="M819 510L810 436L704 529Z" fill="#201e1b" stroke="#201e1b"></path><path d="M308 0L223 0L334 74Z" fill="#12110c" stroke="#12110c"></path><path d="M609 73L503 0L474 121Z" fill="#262522" stroke="#262522"></path><path d="M338 900L311 814L194 900Z" fill="#1c1b18" stroke="#1c1b18"></path><path d="M366 825L364 900L486 810Z" fill="#201e1b" stroke="#201e1b"></path><path d="M486 810L596 900L607 769Z" fill="#201e1b" stroke="#201e1b"></path><path d="M194 900L311 814L195 783Z" fill="#12110c" stroke="#12110c"></path><path d="M838 630L704 529L682 620Z" fill="#262522" stroke="#262522"></path><path d="M69 725L0 774L126 790Z" fill="#1c1b18" stroke="#1c1b18"></path><path d="M126 790L194 900L195 783Z" fill="#201e1b" stroke="#201e1b"></path><path d="M0 613L0 738L69 725Z" fill="#12110c" stroke="#12110c"></path><path d="M667 0L563 0L609 73Z" fill="#191815" stroke="#191815"></path><path d="M609 73L563 0L503 0Z" fill="#12110c" stroke="#12110c"></path><path d="M93 0L95 108L161 75Z" fill="#2a2825" stroke="#2a2825"></path><path d="M95 108L0 103L97 179Z" fill="#1c1b18" stroke="#1c1b18"></path><path d="M731 803L711 683L635 739Z" fill="#201e1b" stroke="#201e1b"></path><path d="M364 900L519 900L486 810Z" fill="#161511" stroke="#161511"></path><path d="M0 738L0 774L69 725Z" fill="#080601" stroke="#080601"></path><path d="M89 900L194 900L126 790Z" fill="#1c1b18" stroke="#1c1b18"></path><path d="M711 683L808 664L682 620Z" fill="#000000" stroke="#000000"></path><path d="M731 803L635 739L607 769Z" fill="#201e1b" stroke="#201e1b"></path><path d="M223 0L93 0L161 75Z" fill="#23211e" stroke="#23211e"></path><path d="M808 664L838 630L682 620Z" fill="#191815" stroke="#191815"></path><path d="M900 505L900 420L810 436Z" fill="#161511" stroke="#161511"></path><path d="M519 900L596 900L486 810Z" fill="#080601" stroke="#080601"></path><path d="M661 900L731 803L607 769Z" fill="#262522" stroke="#262522"></path><path d="M808 664L900 678L838 630Z" fill="#191815" stroke="#191815"></path><path d="M785 0L667 0L678 126Z" fill="#1c1b18" stroke="#1c1b18"></path><path d="M678 126L667 0L609 73Z" fill="#23211e" stroke="#23211e"></path><path d="M0 774L89 900L126 790Z" fill="#12110c" stroke="#12110c"></path><path d="M810 436L900 420L792 334Z" fill="#191815" stroke="#191815"></path><path d="M792 334L839 174L724 312Z" fill="#080601" stroke="#080601"></path><path d="M900 505L810 436L819 510Z" fill="#191815" stroke="#191815"></path><path d="M900 570L900 505L819 510Z" fill="#23211e" stroke="#23211e"></path><path d="M900 330L839 174L792 334Z" fill="#2a2825" stroke="#2a2825"></path><path d="M900 420L900 330L792 334Z" fill="#262522" stroke="#262522"></path><path d="M596 900L661 900L607 769Z" fill="#12110c" stroke="#12110c"></path><path d="M900 678L900 570L838 630Z" fill="#201e1b" stroke="#201e1b"></path><path d="M838 630L900 570L819 510Z" fill="#161511" stroke="#161511"></path><path d="M797 788L711 683L731 803Z" fill="#080601" stroke="#080601"></path><path d="M93 0L0 0L0 103Z" fill="#12110c" stroke="#12110c"></path><path d="M825 900L797 788L731 803Z" fill="#1c1b18" stroke="#1c1b18"></path><path d="M839 174L814 82L678 126Z" fill="#23211e" stroke="#23211e"></path><path d="M900 73L814 82L839 174Z" fill="#191815" stroke="#191815"></path><path d="M0 774L0 900L89 900Z" fill="#262522" stroke="#262522"></path><path d="M797 788L900 678L808 664Z" fill="#12110c" stroke="#12110c"></path><path d="M900 330L900 172L839 174Z" fill="#0e0c07" stroke="#0e0c07"></path><path d="M900 0L785 0L814 82Z" fill="#0e0c07" stroke="#0e0c07"></path><path d="M814 82L785 0L678 126Z" fill="#12110c" stroke="#12110c"></path><path d="M900 172L900 73L839 174Z" fill="#12110c" stroke="#12110c"></path><path d="M661 900L825 900L731 803Z" fill="#23211e" stroke="#23211e"></path><path d="M797 788L900 819L900 678Z" fill="#2a2825" stroke="#2a2825"></path><path d="M825 900L900 819L797 788Z" fill="#0e0c07" stroke="#0e0c07"></path><path d="M900 73L900 0L814 82Z" fill="#0e0c07" stroke="#0e0c07"></path><path d="M825 900L900 900L900 819Z" fill="#161511" stroke="#161511"></path></g></svg>